<?xml version="1.0" standalone="no"?><!DOCTYPE svg PUBLIC "-//W3C//DTD SVG 1.1//EN" "http://www.w3.org/Graphics/SVG/1.1/DTD/svg11.dtd"><svg t="1745316513970" class="icon" viewBox="0 0 1365 1024" version="1.1" xmlns="http://www.w3.org/2000/svg" p-id="5749" xmlns:xlink="http://www.w3.org/1999/xlink" width="266.6015625" height="200"><path d="M1183.874389 814.830933c-21.7088 22.1184-65.194667 55.296-141.175466 55.296h-466.944c141.175467-138.171733 260.573867-254.225067 271.496533-265.284266 10.8544-11.0592 37.956267-38.7072 65.1264-60.757334 54.272-49.834667 97.757867-55.296 135.714133-55.296 54.340267 0 97.757867 22.1184 135.7824 55.296 75.9808 71.816533 75.9808 198.929067 0 270.7456z m92.296534-359.2192a300.919467 300.919467 0 0 0-222.6176-99.464533c-76.049067 0-141.175467 27.648-200.9088 71.816533-21.7088 22.1184-54.272 44.2368-81.442134 77.4144-21.7088 22.1184-488.6528 486.331733-488.6528 486.331734 27.101867 5.461333 59.733333 5.461333 86.8352 5.461333h591.872c43.4176 0 75.9808 0 108.544-5.461333a330.820267 330.820267 0 0 0 200.9088-88.4736c124.928-121.514667 124.928-326.0416 5.461334-447.624534z" fill="#00A3FF" p-id="5750"></path><path d="M504.484523 423.048533c-60.074667-44.578133-120.149333-66.901333-191.0784-66.901333-87.381333 0-169.301333 39.048533-223.914667 100.352a329.591467 329.591467 0 0 0 5.461333 457.1136c54.613333 50.176 109.226667 78.0288 174.762667 83.626667l125.610667-122.6752h-70.997334c-70.997333-5.5296-114.688-27.8528-141.994666-55.7056a203.434667 203.434667 0 0 1-5.461334-278.7328c38.229333-39.048533 81.92-55.773867 136.533334-55.773867 32.768 0 81.92 5.597867 131.072 55.773867 21.845333 22.254933 81.92 66.901333 103.765333 89.156266h5.393067l81.92-83.626666v-5.5296c-38.229333-39.048533-98.304-89.224533-131.072-117.077334" fill="#00C8DC" p-id="5751"></path><path d="M1082.703189 279.415467C1021.877589 115.0976 861.519189 0 679.110656 0 463.524523 0 292.175189 158.9248 258.997589 356.1472c16.5888 0 33.1776-5.461333 55.296-5.461333 22.1184 0 49.7664 5.461333 71.8848 5.461333 27.579733-137.0112 149.230933-235.588267 292.932267-235.588267a306.176 306.176 0 0 1 276.48 175.3088s5.461333 5.461333 5.461333 0c38.7072-5.461333 82.944-16.384 121.6512-16.384 0 5.461333 0 5.461333 0 0" fill="#006EFF" p-id="5752"></path></svg>