<svg class="prefix__icon" viewBox="0 0 1024 1024" xmlns="http://www.w3.org/2000/svg" width="200" height="200"><path d="M870.633 753.338c0 36.538-19.317 44.917-19.317 44.917l-350.72 202.472a39.33 39.33 0 01-35.141 0S121.018 800.582 108.45 791.273A30.022 30.022 0 0195.65 768V354.676c0-18.152 23.273-30.952 23.273-30.952l343.272-198.982a46.545 46.545 0 0141.659 0l336.523 195.723a47.942 47.942 0 0129.091 47.942v384.931zm-137.31-395.636L496.874 221.09a37.004 37.004 0 00-32.815 0L193.862 375.855s-17.92 10.705-17.687 25.134 0 323.956 0 323.956a23.273 23.273 0 0010.007 17.455c10.007 6.982 279.273 162.91 279.273 162.91a30.487 30.487 0 0027.694 0C509.905 896 768 747.286 768 747.286s15.127-6.516 15.127-35.142V631.39L480.582 815.244v-70.517a70.982 70.982 0 0123.273-48.174l268.8-161.28a56.785 56.785 0 0012.8-33.978v-72.379l-305.106 184.32v-74.472a51.665 51.665 0 0119.316-41.659zM955.812 98.21a9.076 9.076 0 00-8.611-9.775h-62.836V24.67c0-3.724-6.051-5.12-12.335-5.12l-34.21 5.586c-4.19 0-7.215 2.792-7.215 5.352v57.95H768a9.31 9.31 0 00-8.378 8.61v46.546h69.818v65.862c0 3.723 6.05 6.283 12.567 5.352l35.142-5.818c4.19 0 6.75-3.025 6.75-5.353v-60.741h69.817z" fill="#409EFF"/></svg>