<svg class="prefix__icon" viewBox="0 0 1024 1024" xmlns="http://www.w3.org/2000/svg" width="200" height="200"><path d="M947.2 511.642C947.2 271.488 752.358 76.8 512 76.8S76.8 271.488 76.8 511.642c0 221.85 166.272 404.89 381.056 431.513a217.6 217.6 0 0044.442 4.045c4.915 0 9.676-.256 14.284-.742C754.816 944.026 947.2 750.336 947.2 511.642zm-62.208 6.144a426.829 426.829 0 00-8.5-63.565c.385-7.373.487-14.336.308-20.839a374.656 374.656 0 018.192 84.404zm-746.01-6.144c0-26.368 2.74-52.07 7.936-76.877 16.128 17.229 54.093 16.819 63.335-8.935 16.589 9.882 38.835 11.674 38.835 31.412 0 65.126 2.304 134.963 61.517 136.038 1.664.026 32.998 11.878 47.923 50.56 5.146 13.363 25.549 0 47.923 0 11.162 0 0 18.816 0 59.494 0 40.525 87.373 102.912 87.373 102.912-.41 26.83.691 48.512 2.918 65.844-19.712-.359-36.352 2.252-49.408 6.707-175.155-30.592-308.326-183.322-308.326-367.155zm464.87 361.344c-1.945-9.472-10.418-14.644-25.855-10.599 12.339-52.429 18.304-81.817 44.032-104.115 37.197-32.256 4.429-68.096-23.885-63.898-22.298 3.38-8.192-27.622-28.134-29.337-19.917-1.664-45.927-41.267-74.573-54.912-15.207-7.194-30.131-26.522-53.555-27.392-20.762-.82-51.124 17.561-51.124 3.379 0-45.568-4.608-78.131-5.555-91.11-.768-10.445-6.835-3.533 21.248-2.842 15.283.41 7.808-30.694 22.938-31.898 14.848-1.177 50.253 13.901 59.264 7.885 8.371-5.606 61.568 139.648 61.568 24.013 0-13.722-7.091-37.58 0-50.586 28.134-51.328 54.425-93.184 52.07-99.328-1.331-3.43-28.774-6.272-50.688 1.076-7.424 2.483 2.355 14.08-8.269 16.537-39.859 9.216-75.033-10.752-62.72-29.465 12.621-19.2 58.368-8.397 62.362-46.9 2.304-22.067 4.224-47.616 5.478-66.636 53.632 8.396 47.719-69.556-32-77.901 161.28 1.869 297.933 106.01 348.084 250.547a15.155 15.155 0 00-8.91-4.045c-24.089-60.211-82.585-16.64-62.745 36.455-106.317 81.74-79.104 138.752-44.185 171.366 18.38 17.152 35.916 42.957 47.308 61.517-12.39 36.198 45.773 21.683 74.47-39.757a373.53 373.53 0 01-266.623 257.946z" fill="#5286DF"/></svg>