<svg class="prefix__icon" viewBox="0 0 1024 1024" xmlns="http://www.w3.org/2000/svg" width="200" height="200"><path d="M901.632 926.72c0 12.8-5.12 25.088-14.336 34.304-9.216 9.216-21.504 14.336-34.304 14.336H170.496c-12.8 0-25.6-5.12-34.304-14.336-9.216-9.216-14.336-21.504-14.336-34.304V48.64c0-12.8 5.12-25.6 14.336-34.304C144.896 5.12 157.696 0 170.496 0h418.816c12.8 0 25.6 5.12 34.816 14.336l263.68 263.68c9.216 9.216 14.336 21.504 14.336 34.816V926.72h-.512z" fill="#EBECF0"/><path d="M901.632 926.72v48.64c0 12.8-5.12 25.6-14.336 34.304-9.216 9.216-21.504 14.336-34.304 14.336H170.496c-27.136 0-48.64-22.016-48.64-48.64v-48.64c0 12.8 5.12 25.088 14.336 34.304 9.216 9.216 21.504 14.336 34.304 14.336h682.496c27.136 0 48.64-22.016 48.64-48.64z" fill="#C1C7D0"/><path d="M24.064 536.576h975.36v243.712c0 27.136-22.016 48.64-48.64 48.64H73.216c-12.8 0-25.6-5.12-34.304-14.336-9.216-9.216-14.336-21.504-14.336-34.816v-243.2h-.512z" fill="#EAA51B"/><path d="M121.856 536.576v-97.792l-97.792 97.792h97.792zm779.776 0l1.024-97.792 97.28 97.792h-98.304z" fill="#CE8C17"/><path d="M901.632 312.832v6.656h-263.68c-27.136 0-48.64-22.016-48.64-48.64V0c12.8 0 25.6 5.12 34.816 14.336l264.192 263.68c8.704 9.216 13.824 21.504 13.312 34.816z" fill="#C1C7D0"/><path d="M250.573 781.517h-55.655V590.029h74.855l26.521 95.539c.359 1.28 1.024 4.25 2.1 8.909 1.024 4.659 2.508 11.008 4.403 19.2 1.229-6.4 2.355-12.032 3.379-16.845s1.946-8.448 2.714-10.854l27.187-95.95h74.752v191.489h-55.655l.512-94.26c0-5.734 0-11.263.052-16.69 0-5.428.102-11.009.204-16.845-2.099 9.881-4.608 20.684-7.526 32.358l-.41 1.69-23.654 93.747h-42.906l-23.91-91.648c-1.126-4.147-2.253-8.909-3.38-14.285a1541.92 1541.92 0 01-4.402-21.862c.256 8.243.46 15.308.563 21.196.153 5.888.205 10.599.205 14.183v92.416zm196.403 0V590.029h60.98v63.437l55.142-63.437h71.372l-68.403 70.605 77.21 120.883h-73.319l-46.796-76.698-15.207 15.719v60.979h-60.979zm191.898-191.488h62.924l32.256 123.648 34.56-123.648h60.468L764.62 781.517h-61.235l-64.461-191.488z" fill="#FFF"/></svg>