<svg class="prefix__icon" viewBox="0 0 1024 1024" xmlns="http://www.w3.org/2000/svg" width="200" height="200"><path d="M822.526 22.401C741.186 8.161 626.363 0 507.546 0 389.78 0 280.863 7.668 200.88 21.568 74.823 43.476 44.802 73.744 22.48 201.482c-29.584 169.158-30.021 453.83-.968 621.64 21.83 126.055 52.097 156.06 179.898 178.437C282.957 1015.824 398.018 1024 517.08 1024c117.498 0 226.201-7.62 306.065-21.456 126.071-21.925 156.1-52.177 178.39-179.954 29.601-169.183 30.006-453.918.89-621.751C980.54 74.784 950.288 44.762 822.526 22.393z" fill="#07A007"/><path d="M152.25 314.21l84.953 99.518v-100.44c0-6.525 1.81-11.43 5.43-14.685 3.62-3.27 8.501-4.898 14.653-4.898 6.35 0 11.351 1.628 15.027 4.898 3.675 3.255 5.509 8.16 5.509 14.685v132.827c.007 14.82-7.93 22.226-23.806 22.226-3.97 0-7.542-.444-10.709-1.318a29.569 29.569 0 01-8.922-4.207 46.39 46.39 0 01-7.74-6.747 471.772 471.772 0 01-7.144-7.882l-82.872-98.384v98.955c0 6.454-1.945 11.328-5.811 14.63-3.866 3.302-8.827 4.953-14.876 4.953-6.255 0-11.272-1.667-15.034-5.009-3.77-3.342-5.652-8.2-5.652-14.574V318.472c0-5.533.794-9.867 2.381-13.018 1.882-3.453 5.001-6.271 9.367-8.462a31.093 31.093 0 0114.153-3.287c3.97 0 7.359.5 10.193 1.5 2.826 1 5.302 2.342 7.438 4.033a45.247 45.247 0 016.549 6.565c2.222 2.683 4.532 5.485 6.914 8.406zm468.342 0l84.952 99.518v-100.44c0-6.525 1.81-11.43 5.43-14.685 3.62-3.27 8.501-4.898 14.653-4.898 6.35 0 11.36 1.628 15.027 4.898 3.675 3.255 5.509 8.16 5.509 14.685v132.827c0 14.828-7.938 22.226-23.814 22.226-3.97 0-7.541-.437-10.709-1.318a29.577 29.577 0 01-8.922-4.207 46.39 46.39 0 01-7.74-6.74 471.772 471.772 0 01-7.144-7.882l-82.872-98.383v98.955c0 6.454-1.945 11.328-5.81 14.63-3.867 3.302-8.828 4.953-14.877 4.953-6.255 0-11.264-1.667-15.034-5.009-3.77-3.342-5.652-8.2-5.652-14.574V318.472c0-5.533.794-9.867 2.381-13.018 1.882-3.453 5.001-6.271 9.367-8.462a31.085 31.085 0 0114.162-3.287c3.969 0 7.366.5 10.192 1.5s5.302 2.342 7.438 4.033a45.247 45.247 0 016.549 6.565c2.222 2.683 4.532 5.485 6.914 8.406zm151.933 118.426l47.096-55.185-39.627-49.072c-3.73-4.763-6.533-8.851-8.398-12.265-1.866-3.42-2.802-6.707-2.802-9.85 0-3.231 1.794-6.129 5.382-8.7 3.588-2.573 7.97-3.859 13.137-3.859 5.938 0 10.558 1.398 13.86 4.208 3.302 2.802 7.866 8.001 13.709 15.606l31.593 41.007 33.736-41.007 7.113-8.867c1.96-2.46 3.85-4.5 5.668-6.112a18.676 18.676 0 016.104-3.628c2.246-.802 4.858-1.207 7.827-1.207 5.358 0 9.732 1.286 13.137 3.858 3.397 2.572 5.096 5.628 5.096 9.16 0 5.145-3.69 12.13-11.057 20.957l-41.492 49.771 44.65 55.185c4.025 4.834 6.939 8.843 8.757 12.034 1.825 3.183 2.73 6.2 2.73 9.05 0 2.682-.817 5.135-2.445 7.366-1.627 2.222-3.921 3.993-6.89 5.294a24.735 24.735 0 01-10.05 1.961c-4.016 0-7.421-.675-10.192-2.016a20.551 20.551 0 01-6.747-5.009c-1.723-2-4.93-5.874-9.62-11.637l-37.047-46.77-39.341 48.151c-3.064 3.842-5.24 6.533-6.533 8.065a33.022 33.022 0 01-4.668 4.493c-1.817 1.46-3.969 2.62-6.461 3.453a27.307 27.307 0 01-8.756 1.27c-5.167 0-9.446-1.27-12.851-3.802-3.398-2.54-5.096-6.224-5.096-11.058 0-5.683 3.492-12.63 10.478-20.845zm-232.742-83.365v-34.72c0-7.026-1.85-12.257-5.549-15.694-3.699-3.437-8.525-5.152-14.494-5.152-5.795 0-10.518 1.739-14.17 5.208-3.651 3.477-5.477 8.692-5.477 15.638v34.72h39.69zm-39.69 23.814v73.68c0 7.145 1.85 12.543 5.549 16.154 3.69 3.612 8.39 5.422 14.098 5.422 5.961 0 10.795-1.786 14.494-5.366 3.7-3.572 5.549-8.978 5.549-16.21v-73.68h-39.69zm-132.961-8.636c-7.883 1.159-13.947 8.128-13.947 16.574 0 9.256 7.279 16.757 16.273 16.757h59.796l-19.789 37.031h-62.393l-24.94-55.288 27.274-52.295h60.424l8.224 17.662h36.094l-23.846-51.185H329.95l-44.183 84.73 40.556 89.906H428.69l55.526-103.892H367.132z" fill="#FEFEFE"/><path d="M141.59 695.383c6.866 7.502 15.44 11.098 25.711 11.098 13.066 0 22.314-4.549 27.751-13.495a140.264 140.264 0 0011.9-25.608c3.246 8.557 5.588 14.376 7.016 17.487 3.176 6.748 7.256 12.185 12.24 16.353 4.001 3.254 9.177 4.89 15.52 4.89 15.78 0 26.274-10.391 31.49-31.15l36.363-143.002-26.624-.111-33.53 130.604c-1.587 6.294-3.318 10.16-5.207 11.59a7.589 7.589 0 01-4.421 1.253c-1.73 0-3.057-.412-3.97-1.246-1.801-1.826-3.92-5.89-6.334-15.13l-33.189-124.372h-26.854l25.037 94.922-14.956 40.984c-.674 1.746-2.183 3.27-4.524 5.319-2.04 1.667-4.342 2.317-6.914 2.317a10.081 10.081 0 01-8.041-3.73c-2.27-2.731-4.382-6.827-6.35-14.78L122.11 534.543H95.256l32.395 127.833c4.302 17.273 8.954 27.616 13.939 32.998zm193.718 7.287c7.407 2.747 18.623 3.81 25.267 3.81h76.014v-23.663h-76.014c-3.969 0-11.32-1.285-13.844-3.508-2.977-2.675-8.573-6.589-8.573-11.415V630.34h98.431v-28.814h-98.43V575.67c0-9.724 14.51-12.225 27.115-12.225h71.315v-23.663h-81.285c-11.073 0-24.044 1.754-30.537 8.589-7.327 7.795-15.186 16.082-15.186 28.188v87.992c0 20.266 11.368 32.768 25.727 38.118zm199.284 3.81h-82.127c.27-108.273.397-166.49.397-174.635h84.27c9.946 0 21.408 3.826 28.632 11.113 7.224 7.136 13.709 16.384 13.709 27.394v97.018c0 11.534-6.382 20.718-13.384 28.148-7.064 7.518-19.495 10.963-31.497 10.963zM549.3 563.598c-4.303-2.524-9.597-3.85-15.876-3.97h-53.177v43.66h75.41v-23.814c.072-8.057-2.047-13.352-6.35-15.876zm6.358 65.036h-75.41v53.653h56.875c8.62 0 18.535-5.922 18.535-17.083v-36.57z" fill="#FFF"/><path d="M579.473 762.047a182.574 182.574 0 10365.147 0 182.574 182.574 0 10-365.147 0z" fill="#0275D8"/><path d="M603.287 762.047a158.76 158.76 0 10317.52 0 158.76 158.76 0 10-317.52 0z" fill="#FFF"/><path d="M813.643 672.697l-51.596-29.72-51.597 29.72v59.614l51.597 29.736 51.596-29.72v-59.623zM797.767 724.3l-35.72 20.282-35.721-20.282v-43.58l35.72-20.28 35.721 20.28v43.58zm-35.728-27.346l27.79-14.288-27.79-14.289-27.775 14.289 27.775 14.288zm-7.93 78.935l-51.597-29.72-51.597 29.72v59.615l51.597 29.735 51.597-29.72v-59.622zm-15.876 51.605l-35.721 20.282-35.721-20.282v-43.58l35.72-20.28 35.722 20.28v43.58zm-35.73-27.346l27.792-14.289-27.791-14.288-27.775 14.288 27.775 14.289zm170.675-24.259l-51.597-29.72-51.597 29.72v59.615l51.597 29.735 51.597-29.72v-59.622zm-15.876 51.605l-35.72 20.282-35.722-20.282v-43.58l35.721-20.28 35.721 20.28v43.58zm-35.729-27.346l27.791-14.289-27.79-14.288-27.776 14.288 27.775 14.289z" fill="#006DFF"/></svg>