<svg class="prefix__icon" viewBox="0 0 1024 1024" xmlns="http://www.w3.org/2000/svg" width="200" height="200"><path d="M812.63 108.738c-19.19 31.982-12.794 95.946 12.792 140.72 31.982 44.775 70.36 57.568 89.55 25.586 19.188-31.982 12.792-95.946-12.794-140.72-31.982-44.775-70.36-57.568-89.549-25.586zM.29 383.782c0 70.36 31.983 127.927 63.964 127.927 38.379 0 63.964-57.567 63.964-127.927s-25.585-127.927-63.964-127.927c-31.981 0-63.963 57.567-63.963 127.927zm614.052-6.396c-19.19 31.981 6.396 70.36 57.567 95.945 51.171 19.19 95.946 6.396 95.946-25.585 0-83.153-115.135-140.72-153.513-70.36zM281.73 479.727c-57.567 140.72 6.396 185.495 95.945 70.36 51.171-63.963 57.568-102.341 6.397-134.323-31.982-19.19-83.153 6.396-102.342 63.963zm198.287 95.946c-19.189 31.982 6.397 63.964 57.567 63.964 57.568 0 102.342-31.982 102.342-63.964 0-38.378-25.585-63.964-57.567-63.964-38.378 0-83.153 25.586-102.342 63.964zM601.55 741.978c-115.134 89.55-115.134 95.946 25.586 25.586 76.756-38.378 140.72-83.153 140.72-95.946 0-51.17-31.982-38.378-166.306 70.36z"/><path d="M895.782 690.808c0 83.152-300.63 204.683-511.71 204.683-102.341 0-204.683 31.982-223.872 63.964-44.775 70.36 588.466 89.549 761.167 25.585 108.739-44.774 140.72-345.403 38.379-345.403-31.982 0-63.964 25.585-63.964 51.17z"/></svg>