<svg class="prefix__icon" viewBox="0 0 1024 1024" xmlns="http://www.w3.org/2000/svg" width="200" height="200"><path d="M102.4 256h819.2q102.4 0 102.4 102.4v563.2q0 102.4-102.4 102.4H102.4Q0 1024 0 921.6V358.4Q0 256 102.4 256z" fill="#D24425"/><path d="M768 0a102.4 102.4 0 01102.4 102.4v870.912A51.2 51.2 0 00921.6 1024l-51.2-.064v.064h-768A102.4 102.4 0 010 921.6V102.4A102.4 102.4 0 01102.4 0H768z" fill="#F67138"/><path d="M153.6 486.4V128H256v51.2h-51.2v256H256v51.2H153.6zm588.8 0V128H640v51.2h51.2v256H640v51.2h102.4z" fill="#FFDCB7" fill-opacity=".6"/><path d="M319.744 384a39.68 39.68 0 0027.776-10.688 39.296 39.296 0 0010.88-27.968 38.08 38.08 0 00-10.88-27.52 38.784 38.784 0 00-27.776-10.624c-10.88 0-19.84 3.584-26.752 10.688a34.816 34.816 0 00-11.392 27.456c0 11.2 3.456 20.352 11.392 27.52A36.096 36.096 0 00319.744 384zm128 0a39.68 39.68 0 0027.776-10.688 39.296 39.296 0 0010.88-27.968 38.08 38.08 0 00-10.88-27.52 38.784 38.784 0 00-27.776-10.624c-10.88 0-19.84 3.584-26.752 10.688a34.816 34.816 0 00-11.392 27.456c0 11.2 3.456 20.352 11.392 27.52A36.096 36.096 0 00447.744 384zm128 0a39.68 39.68 0 0027.776-10.688 39.296 39.296 0 0010.88-27.968 38.08 38.08 0 00-10.88-27.52 38.784 38.784 0 00-27.776-10.624c-10.88 0-19.84 3.584-26.752 10.688a34.816 34.816 0 00-11.392 27.456c0 11.2 3.456 20.352 11.392 27.52A36.096 36.096 0 00575.744 384z" fill="#FFDCB7"/><path d="M202.944 896v-84.352l69.44-146.048h-48l-23.04 56.064c-6.464 17.088-13.312 33.28-20.48 51.072h-1.28c-7.168-17.792-13.376-33.92-19.904-51.072L136.64 665.6H87.744l69.12 146.048V896h46.08zm81.152 0l16.192-59.136h74.752L391.232 896h48.256l-74.112-230.4h-54.144L237.44 896h46.72zm80.96-94.976h-54.784l6.848-25.216c6.848-23.936 13.696-50.112 19.584-75.328h1.28c6.848 24.96 13.056 51.392 20.224 75.328l6.848 25.216zM482.048 896v-96.192c0-21.76-3.776-53.888-5.952-75.648h1.28l18.368 54.144 35.84 96.832h26.432l35.456-96.832 18.688-54.144h1.28c-2.176 21.76-5.632 53.824-5.632 75.648V896h42.048V665.6h-51.072l-38.272 107.712c-4.992 14.336-9.024 29.568-14.08 44.544h-1.536c-4.672-14.976-8.96-30.208-13.952-44.544L491.712 665.6H440.64V896h41.408zm337.984 0v-38.592h-93.44V665.6h-46.08V896h139.52z" fill="#FFF"/></svg>